<svg width="40" height="40" viewBox="0 0 40 40" fill="none" xmlns="http://www.w3.org/2000/svg">
<path d="M11.4011 2.77489C11.8158 2.74036 12.242 2.7596 12.6584 2.76092L14.7362 2.76475L21.5707 2.76691L26.3003 2.7703L27.6184 2.76554C27.9175 2.764 28.2267 2.74724 28.5236 2.78701C28.8506 2.83079 29.1226 2.99229 29.3196 3.25603C29.471 3.45866 29.5345 3.64907 29.5426 3.90034C29.5582 4.37908 29.4651 4.87588 29.4171 5.35261C29.3271 6.29733 29.2299 7.24135 29.1254 8.18458C28.8915 10.3726 28.7458 12.5845 28.4246 14.7613C29.0729 14.7121 29.7504 14.7515 30.4025 14.752C31.2083 14.7525 32.0314 14.7182 32.8345 14.7713C33.3246 14.8038 33.7205 14.9985 34.043 15.3738C34.3743 15.7594 34.5184 16.2193 34.4758 16.7242C34.4353 17.2084 34.2036 17.6564 33.8318 17.9693C33.6401 18.1284 33.3952 18.2636 33.1512 18.3192C32.7466 18.4112 30.821 18.3905 30.3562 18.3452C30.6456 18.881 30.9272 20.2898 31.0221 20.9305C31.4599 23.8862 31.0223 27.4242 28.4852 29.3565C28.113 29.6401 27.37 29.8528 27.2051 30.3165C27.1218 30.551 27.1545 30.8778 27.1487 31.1268C27.1133 32.6675 27.3762 33.8218 26.38 35.1614C26.2759 35.312 26.1551 35.4531 26.0308 35.5876C24.7276 36.9981 22.5736 37.2787 20.751 37.3477C18.8021 37.4216 15.6664 37.2328 14.1713 35.8364C13.7151 35.4103 13.2196 34.8025 13.0193 34.2062C12.8698 33.7614 12.9251 33.2502 12.9067 32.7866L12.8195 30.2731C12.6019 29.9208 12.0361 29.7554 11.6978 29.5278C10.8103 28.9307 10.1207 28.0377 9.66911 27.0737C8.44788 24.4667 8.64573 21.0089 9.60222 18.3534C9.15562 18.3749 8.70504 18.3688 8.25788 18.3704C7.91523 18.3718 7.56626 18.3854 7.22423 18.3688C6.75094 18.346 6.2732 18.1331 5.9577 17.7752C5.62754 17.4005 5.4772 16.9378 5.51133 16.4415C5.54881 15.9425 5.78526 15.4796 6.16751 15.1566C6.35657 14.9944 6.5779 14.8716 6.82328 14.8213C7.43382 14.6963 8.61973 14.7547 9.29786 14.7533C10.0476 14.7519 10.8219 14.7109 11.5681 14.7663C11.2844 12.35 11.0171 9.93198 10.7664 7.51211L10.5461 5.42934C10.4935 4.966 10.4062 4.48676 10.4048 4.02024C10.4039 3.76677 10.4334 3.56294 10.5689 3.34457C10.7631 3.03165 11.0494 2.85785 11.4011 2.77489ZM23.0813 33.3365C23.2257 33.5629 23.426 33.7308 23.6927 33.7882C23.9885 33.8517 24.3819 33.8139 24.6389 33.6442C24.8557 33.5011 24.9965 33.2694 25.0461 33.0167C25.0993 32.7458 25.0819 32.4418 25.0875 32.1658C25.0965 31.7181 25.1263 31.2732 25.1404 30.8263C25.1502 30.5138 25.1372 30.191 25.176 29.8809C25.1971 29.7128 25.2342 29.5466 25.302 29.3908C25.4495 29.0524 25.7383 28.7731 26.0379 28.5669C26.3496 28.3524 26.7067 28.2056 27.0153 27.988C28.1218 27.208 28.7144 25.9822 28.9613 24.6843C29.0679 24.124 29.084 23.5665 29.0851 22.9977C29.0879 21.6966 28.9599 20.4545 28.5119 19.2214C28.4269 18.9873 28.3401 18.7068 28.1984 18.5014C28.1727 18.4641 28.1429 18.4314 28.1102 18.4003C27.594 18.3141 27.0093 18.3614 26.4846 18.3605L23.4296 18.3599L13.2136 18.3619C12.7809 18.362 12.3483 18.3664 11.9156 18.3753C11.1184 19.1884 10.88 21.753 10.8889 22.8734C10.9025 24.5744 11.2297 26.4253 12.4984 27.6592C13.0432 28.1891 13.3805 28.2705 14.0184 28.5868C14.835 28.9917 14.9049 30.101 14.9184 30.9104C14.9283 31.4908 14.8518 32.5633 14.9852 33.0687C15.0321 33.2461 15.1214 33.4144 15.2526 33.5437C15.4728 33.7606 15.7426 33.8173 16.0429 33.8114C16.3467 33.8053 16.6247 33.7502 16.8392 33.518C17.2627 33.0596 16.9259 32.284 17.5139 31.9627C17.6332 31.8974 17.7765 31.8498 17.9128 31.8455C18.161 31.8374 18.4018 31.945 18.5784 32.1164C19.0551 32.5789 18.6498 33.5033 19.5026 33.9299C19.6522 34.0048 19.8493 34.0627 20.0174 34.0614C20.2814 34.0596 20.5969 33.9044 20.7771 33.7134C21.3415 33.1153 20.9384 31.8914 22.0521 31.8492C22.2723 31.8408 22.483 31.9266 22.6427 32.0767C22.9883 32.4016 22.8526 32.9142 23.0813 33.3365Z" fill="black"/>
<path d="M15.9037 20.8188C17.5667 20.7946 18.9375 22.1174 18.9726 23.7802C19.0078 25.443 17.6942 26.8224 16.0316 26.8685C14.3535 26.915 12.9583 25.5864 12.9228 23.908C12.8874 22.2297 14.2251 20.8433 15.9037 20.8188Z" fill="black"/>
<path d="M23.8458 20.8154C25.5005 20.6936 26.943 21.9311 27.0743 23.5852C27.2056 25.2393 25.9764 26.6888 24.3231 26.8296C22.6563 26.9715 21.1924 25.7302 21.06 24.0626C20.9277 22.395 22.1775 20.9382 23.8458 20.8154Z" fill="black"/>
<path d="M20.0239 26.1648C20.0745 26.1559 20.1255 26.1644 20.1736 26.182C20.679 26.3669 21.4833 27.6962 21.7358 28.1878C21.9759 28.6552 22.2132 29.215 22.0384 29.743C21.9597 29.981 21.7972 30.2021 21.5666 30.3109C21.3363 30.4196 21.0193 30.4133 20.7817 30.3315C20.4615 30.2214 20.221 29.9976 20.0749 29.696C19.9868 29.7321 19.7383 30.1508 19.4553 30.2874C19.2257 30.3981 18.8675 30.4375 18.6266 30.3473C18.4002 30.2626 18.1933 30.0902 18.0927 29.8686C17.9177 29.483 18.0012 29.0038 18.1453 28.6229C18.4441 27.8326 19.2472 26.5155 20.0239 26.1648Z" fill="black"/>
</svg>
